<svg xmlns="http://www.w3.org/2000/svg" width="375" viewBox="0 0 375 375" height="375" version="1.0"><g fill="#FFF"><g><g><path d="M 18.871094 -31.503906 L 18.871094 -32.328125 L 2.476562 -32.328125 L 2.476562 0.0507812 L 6.136719 0.0507812 L 6.136719 -16.449219 L 17.480469 -16.449219 L 17.480469 -17.273438 L 6.136719 -17.273438 L 6.136719 -31.503906 Z M 18.871094 -31.503906" transform="translate(79.332 202.5)"/></g></g></g><g fill="#FFF"><g><g><path d="M 26.039062 -32.328125 L 26.039062 -12.375 C 26.039062 -2.527344 21.039062 -0.359375 15.160156 -0.359375 C 6.445312 -0.359375 5.980469 -8.25 5.980469 -11.910156 L 5.980469 -32.328125 L 2.320312 -32.328125 L 2.320312 -11.910156 C 2.320312 -1.390625 8.300781 0.980469 14.386719 0.980469 C 22.636719 0.980469 26.914062 -3.402344 26.914062 -11.910156 L 26.914062 -32.328125 Z M 26.039062 -32.328125" transform="translate(109.291 202.5)"/></g></g></g><g fill="#FFF"><g><g><path d="M 28.773438 -32.328125 L 27.945312 -32.328125 L 27.945312 -4.898438 L 2.578125 -32.949219 L 2.476562 -32.949219 L 2.476562 0.0507812 L 3.300781 0.0507812 L 3.300781 -27.070312 L 28.617188 0.980469 L 28.773438 0.980469 Z M 28.773438 -32.328125" transform="translate(147.964 202.5)"/></g></g></g><g fill="#FFF"><g><g><path d="M 15.828125 -32.328125 L 2.476562 -32.328125 L 2.476562 0.0507812 L 13.40625 0.0507812 C 14.953125 0.0507812 32.226562 0.824219 32.226562 -16.65625 C 32.226562 -30.78125 21.8125 -32.328125 15.828125 -32.328125 Z M 13.304688 -0.773438 L 6.136719 -0.773438 L 6.136719 -31.453125 L 13.871094 -31.453125 C 19.75 -31.453125 28.410156 -29.289062 28.410156 -16.65625 C 28.410156 -4.074219 20.367188 -0.773438 13.304688 -0.773438 Z M 13.304688 -0.773438" transform="translate(188.699 202.5)"/></g></g></g><g fill="#FFF"><g><g><path d="M 26.039062 -32.328125 L 26.039062 -12.375 C 26.039062 -2.527344 21.039062 -0.359375 15.160156 -0.359375 C 6.445312 -0.359375 5.980469 -8.25 5.980469 -11.910156 L 5.980469 -32.328125 L 2.320312 -32.328125 L 2.320312 -11.910156 C 2.320312 -1.390625 8.300781 0.980469 14.386719 0.980469 C 22.636719 0.980469 26.914062 -3.402344 26.914062 -11.910156 L 26.914062 -32.328125 Z M 26.039062 -32.328125" transform="translate(232.528 202.5)"/></g></g></g><g fill="#FFF"><g><g><path d="M 25.164062 0.0507812 L 13.046875 -15.210938 C 16.859375 -15.726562 22.636719 -17.582031 22.636719 -24.234375 C 22.636719 -31.351562 14.902344 -32.328125 12.273438 -32.328125 C 9.746094 -32.328125 2.476562 -32.328125 2.476562 -32.328125 L 2.476562 0.0507812 L 6.136719 0.0507812 L 6.136719 -15.003906 L 8.507812 -15.003906 L 20.46875 0.0507812 Z M 6.136719 -31.503906 L 10.3125 -31.503906 C 15.570312 -31.503906 18.71875 -29.339844 18.71875 -23.667969 C 18.71875 -17.890625 15.003906 -15.828125 8.972656 -15.828125 L 6.136719 -15.828125 Z M 6.136719 -31.503906" transform="translate(271.2 202.5)"/></g></g></g><path transform="matrix(2.24768 0 0 2.25 62.495 144.08)" fill="none" d="M 0.000681126 0.000824138 L 111.11528 0.000824138" stroke="#FFF"/><path transform="matrix(2.24782 0 0 2.25 62.495 226.101)" fill="none" d="M 0.000681085 0.0000453988 L 69.738538 0.0000453988" stroke="#FFF"/><path transform="matrix(0 -2.2428 2.25 0 62.494 227.226)" fill="none" d="M -0.00043723 -0.000668487 L 37.454432 -0.000668487" stroke="#FFF"/><path transform="matrix(0 -2.2426 2.25 0 311.38 224.976)" fill="none" d="M -0.000437203 -0.000292712 L 36.454434 -0.000292712" stroke="#FFF"/><g fill="#FFF"><g><g><path d="M 6.828125 -2.578125 C 6.828125 -2.160156 6.738281 -1.785156 6.5625 -1.453125 C 6.394531 -1.117188 6.164062 -0.828125 5.875 -0.578125 C 5.59375 -0.335938 5.265625 -0.148438 4.890625 -0.015625 C 4.515625 0.109375 4.125 0.171875 3.71875 0.171875 C 3.15625 0.171875 2.640625 0.0664062 2.171875 -0.140625 C 1.710938 -0.347656 1.347656 -0.65625 1.078125 -1.0625 L 1.078125 0 L 0.1875 0 L 0.1875 -3.015625 L 1.078125 -3.015625 C 1.078125 -2.671875 1.15625 -2.359375 1.3125 -2.078125 C 1.46875 -1.804688 1.664062 -1.566406 1.90625 -1.359375 C 2.144531 -1.160156 2.421875 -1.003906 2.734375 -0.890625 C 3.054688 -0.773438 3.382812 -0.71875 3.71875 -0.71875 C 4.007812 -0.71875 4.28125 -0.757812 4.53125 -0.84375 C 4.78125 -0.925781 5 -1.039062 5.1875 -1.1875 C 5.375 -1.34375 5.519531 -1.53125 5.625 -1.75 C 5.738281 -1.976562 5.796875 -2.234375 5.796875 -2.515625 C 5.796875 -2.835938 5.722656 -3.113281 5.578125 -3.34375 C 5.441406 -3.570312 5.253906 -3.765625 5.015625 -3.921875 C 4.785156 -4.085938 4.519531 -4.226562 4.21875 -4.34375 C 3.925781 -4.457031 3.628906 -4.570312 3.328125 -4.6875 C 2.960938 -4.8125 2.597656 -4.941406 2.234375 -5.078125 C 1.878906 -5.210938 1.5625 -5.382812 1.28125 -5.59375 C 1 -5.8125 0.769531 -6.070312 0.59375 -6.375 C 0.414062 -6.6875 0.328125 -7.070312 0.328125 -7.53125 C 0.328125 -7.9375 0.410156 -8.296875 0.578125 -8.609375 C 0.753906 -8.929688 0.976562 -9.195312 1.25 -9.40625 C 1.53125 -9.625 1.851562 -9.789062 2.21875 -9.90625 C 2.59375 -10.019531 2.976562 -10.078125 3.375 -10.078125 C 3.851562 -10.078125 4.296875 -9.976562 4.703125 -9.78125 C 5.109375 -9.582031 5.425781 -9.285156 5.65625 -8.890625 L 5.65625 -9.921875 L 6.578125 -9.921875 L 6.578125 -7.078125 L 5.65625 -7.078125 C 5.65625 -7.378906 5.59375 -7.660156 5.46875 -7.921875 C 5.34375 -8.179688 5.175781 -8.40625 4.96875 -8.59375 C 4.757812 -8.78125 4.515625 -8.925781 4.234375 -9.03125 C 3.960938 -9.132812 3.675781 -9.1875 3.375 -9.1875 C 3.101562 -9.1875 2.84375 -9.15625 2.59375 -9.09375 C 2.351562 -9.039062 2.140625 -8.945312 1.953125 -8.8125 C 1.773438 -8.675781 1.632812 -8.5 1.53125 -8.28125 C 1.425781 -8.070312 1.375 -7.820312 1.375 -7.53125 C 1.375 -7.269531 1.4375 -7.046875 1.5625 -6.859375 C 1.6875 -6.679688 1.859375 -6.519531 2.078125 -6.375 C 2.296875 -6.238281 2.546875 -6.113281 2.828125 -6 C 3.117188 -5.894531 3.414062 -5.78125 3.71875 -5.65625 C 4.09375 -5.53125 4.460938 -5.382812 4.828125 -5.21875 C 5.203125 -5.0625 5.535156 -4.867188 5.828125 -4.640625 C 6.117188 -4.410156 6.359375 -4.128906 6.546875 -3.796875 C 6.734375 -3.460938 6.828125 -3.054688 6.828125 -2.578125 Z M 6.828125 -2.578125" transform="translate(226.79 229.851)"/></g></g><g><g><path d="M 7.296875 -7.078125 L 3.46875 1.796875 C 3.269531 2.285156 2.988281 2.609375 2.625 2.765625 C 2.269531 2.921875 1.875 3 1.4375 3 C 0.957031 3 0.472656 2.910156 -0.015625 2.734375 L 0.1875 1.84375 C 0.425781 1.9375 0.660156 2.003906 0.890625 2.046875 C 1.117188 2.097656 1.300781 2.125 1.4375 2.125 C 1.78125 2.125 2.015625 2.039062 2.140625 1.875 C 2.273438 1.707031 2.394531 1.507812 2.5 1.28125 L 2.921875 0.203125 L -0.234375 -7.078125 L 1 -7.078125 L 3.546875 -0.890625 L 6.0625 -7.078125 Z M 7.296875 -7.078125" transform="translate(235.285 229.851)"/></g></g><g><g><path d="M 6.890625 -1.953125 C 6.890625 -1.546875 6.785156 -1.203125 6.578125 -0.921875 C 6.367188 -0.648438 6.097656 -0.429688 5.765625 -0.265625 C 5.441406 -0.109375 5.078125 0 4.671875 0.0625 C 4.273438 0.132812 3.882812 0.171875 3.5 0.171875 C 2.851562 0.171875 2.210938 0.078125 1.578125 -0.109375 C 0.941406 -0.296875 0.390625 -0.539062 -0.078125 -0.84375 L 0.390625 -1.734375 C 0.910156 -1.410156 1.421875 -1.160156 1.921875 -0.984375 C 2.429688 -0.804688 2.957031 -0.71875 3.5 -0.71875 C 5.0625 -0.71875 5.84375 -1.125 5.84375 -1.9375 C 5.84375 -2.125 5.78125 -2.28125 5.65625 -2.40625 C 5.53125 -2.53125 5.359375 -2.628906 5.140625 -2.703125 C 4.921875 -2.785156 4.671875 -2.847656 4.390625 -2.890625 C 4.109375 -2.941406 3.8125 -2.988281 3.5 -3.03125 C 3.101562 -3.082031 2.707031 -3.144531 2.3125 -3.21875 C 1.925781 -3.300781 1.570312 -3.414062 1.25 -3.5625 C 0.9375 -3.71875 0.679688 -3.921875 0.484375 -4.171875 C 0.285156 -4.429688 0.1875 -4.769531 0.1875 -5.1875 C 0.1875 -5.539062 0.273438 -5.84375 0.453125 -6.09375 C 0.640625 -6.351562 0.882812 -6.566406 1.1875 -6.734375 C 1.488281 -6.910156 1.835938 -7.039062 2.234375 -7.125 C 2.640625 -7.207031 3.0625 -7.25 3.5 -7.25 C 4.125 -7.25 4.679688 -7.175781 5.171875 -7.03125 C 5.660156 -6.882812 6.101562 -6.675781 6.5 -6.40625 L 6.09375 -5.59375 C 5.6875 -5.882812 5.273438 -6.085938 4.859375 -6.203125 C 4.441406 -6.316406 3.988281 -6.375 3.5 -6.375 C 3.28125 -6.375 3.035156 -6.351562 2.765625 -6.3125 C 2.503906 -6.269531 2.257812 -6.203125 2.03125 -6.109375 C 1.800781 -6.015625 1.609375 -5.894531 1.453125 -5.75 C 1.304688 -5.601562 1.234375 -5.414062 1.234375 -5.1875 C 1.234375 -4.988281 1.296875 -4.828125 1.421875 -4.703125 C 1.554688 -4.585938 1.726562 -4.488281 1.9375 -4.40625 C 2.15625 -4.332031 2.40625 -4.269531 2.6875 -4.21875 C 2.96875 -4.175781 3.265625 -4.132812 3.578125 -4.09375 C 3.960938 -4.039062 4.347656 -3.972656 4.734375 -3.890625 C 5.128906 -3.816406 5.488281 -3.707031 5.8125 -3.5625 C 6.132812 -3.414062 6.394531 -3.210938 6.59375 -2.953125 C 6.789062 -2.703125 6.890625 -2.367188 6.890625 -1.953125 Z M 6.890625 -1.953125" transform="translate(243.781 229.851)"/></g></g><g><g><path d="M 7.15625 -2.25 C 7.070312 -1.507812 6.78125 -0.921875 6.28125 -0.484375 C 5.78125 -0.046875 5.148438 0.171875 4.390625 0.171875 C 3.972656 0.171875 3.59375 0.101562 3.25 -0.03125 C 2.90625 -0.164062 2.609375 -0.351562 2.359375 -0.59375 C 2.117188 -0.84375 1.929688 -1.132812 1.796875 -1.46875 C 1.671875 -1.8125 1.609375 -2.1875 1.609375 -2.59375 L 1.609375 -6.1875 L 0 -6.1875 L 0 -7.078125 L 1.609375 -7.078125 L 1.609375 -9.921875 L 2.640625 -9.921875 L 2.640625 -7.078125 L 5.65625 -7.078125 L 5.65625 -6.1875 L 2.640625 -6.1875 L 2.640625 -2.59375 C 2.640625 -2.34375 2.679688 -2.101562 2.765625 -1.875 C 2.847656 -1.644531 2.960938 -1.441406 3.109375 -1.265625 C 3.265625 -1.097656 3.445312 -0.960938 3.65625 -0.859375 C 3.875 -0.765625 4.117188 -0.71875 4.390625 -0.71875 C 4.910156 -0.71875 5.34375 -0.875 5.6875 -1.1875 C 6.03125 -1.507812 6.226562 -1.929688 6.28125 -2.453125 Z M 7.15625 -2.25" transform="translate(252.277 229.851)"/></g></g><g><g><path d="M 1.046875 -3.171875 C 1.117188 -2.421875 1.390625 -1.820312 1.859375 -1.375 C 2.328125 -0.9375 2.941406 -0.71875 3.703125 -0.71875 C 4.234375 -0.71875 4.707031 -0.828125 5.125 -1.046875 C 5.539062 -1.265625 5.851562 -1.535156 6.0625 -1.859375 L 6.78125 -1.359375 C 6.425781 -0.859375 6.003906 -0.476562 5.515625 -0.21875 C 5.023438 0.0390625 4.421875 0.171875 3.703125 0.171875 C 3.148438 0.171875 2.644531 0.0820312 2.1875 -0.09375 C 1.738281 -0.28125 1.347656 -0.535156 1.015625 -0.859375 C 0.679688 -1.191406 0.421875 -1.582031 0.234375 -2.03125 C 0.0546875 -2.476562 -0.03125 -2.976562 -0.03125 -3.53125 C -0.03125 -4.070312 0.0507812 -4.566406 0.21875 -5.015625 C 0.382812 -5.472656 0.617188 -5.863281 0.921875 -6.1875 C 1.234375 -6.519531 1.613281 -6.78125 2.0625 -6.96875 C 2.507812 -7.15625 3.007812 -7.25 3.5625 -7.25 C 4.164062 -7.25 4.691406 -7.144531 5.140625 -6.9375 C 5.597656 -6.738281 5.972656 -6.457031 6.265625 -6.09375 C 6.566406 -5.738281 6.789062 -5.3125 6.9375 -4.8125 C 7.082031 -4.320312 7.15625 -3.773438 7.15625 -3.171875 Z M 6.0625 -4.0625 C 5.9375 -4.84375 5.648438 -5.421875 5.203125 -5.796875 C 4.765625 -6.179688 4.21875 -6.375 3.5625 -6.375 C 3.226562 -6.375 2.921875 -6.316406 2.640625 -6.203125 C 2.359375 -6.097656 2.109375 -5.941406 1.890625 -5.734375 C 1.671875 -5.535156 1.484375 -5.289062 1.328125 -5 C 1.179688 -4.71875 1.09375 -4.40625 1.0625 -4.0625 Z M 6.0625 -4.0625" transform="translate(260.772 229.851)"/></g></g><g><g><path d="M 7.078125 0 L 6.046875 0 L 6.046875 -5.09375 C 6.046875 -5.5 5.972656 -5.8125 5.828125 -6.03125 C 5.679688 -6.257812 5.476562 -6.375 5.21875 -6.375 C 4.820312 -6.375 4.53125 -6.164062 4.34375 -5.75 C 4.15625 -5.332031 4.0625 -4.75 4.0625 -4 L 4.0625 0 L 3.015625 0 L 3.015625 -5.09375 C 3.015625 -5.5 2.941406 -5.8125 2.796875 -6.03125 C 2.648438 -6.257812 2.445312 -6.375 2.1875 -6.375 C 1.9375 -6.375 1.738281 -6.296875 1.59375 -6.140625 C 1.445312 -5.992188 1.328125 -5.804688 1.234375 -5.578125 C 1.148438 -5.359375 1.097656 -5.109375 1.078125 -4.828125 C 1.054688 -4.546875 1.046875 -4.269531 1.046875 -4 L 1.046875 0 L 0 0 L 0 -7.078125 L 1.046875 -7.078125 L 1.046875 -6.0625 C 1.265625 -6.851562 1.738281 -7.25 2.46875 -7.25 C 3.15625 -7.25 3.625 -6.898438 3.875 -6.203125 C 4.21875 -6.898438 4.703125 -7.25 5.328125 -7.25 C 5.929688 -7.25 6.375 -7.066406 6.65625 -6.703125 C 6.9375 -6.347656 7.078125 -5.8125 7.078125 -5.09375 Z M 7.078125 0" transform="translate(269.268 229.851)"/></g></g><g><g><path d="M 6.890625 -1.953125 C 6.890625 -1.546875 6.785156 -1.203125 6.578125 -0.921875 C 6.367188 -0.648438 6.097656 -0.429688 5.765625 -0.265625 C 5.441406 -0.109375 5.078125 0 4.671875 0.0625 C 4.273438 0.132812 3.882812 0.171875 3.5 0.171875 C 2.851562 0.171875 2.210938 0.078125 1.578125 -0.109375 C 0.941406 -0.296875 0.390625 -0.539062 -0.078125 -0.84375 L 0.390625 -1.734375 C 0.910156 -1.410156 1.421875 -1.160156 1.921875 -0.984375 C 2.429688 -0.804688 2.957031 -0.71875 3.5 -0.71875 C 5.0625 -0.71875 5.84375 -1.125 5.84375 -1.9375 C 5.84375 -2.125 5.78125 -2.28125 5.65625 -2.40625 C 5.53125 -2.53125 5.359375 -2.628906 5.140625 -2.703125 C 4.921875 -2.785156 4.671875 -2.847656 4.390625 -2.890625 C 4.109375 -2.941406 3.8125 -2.988281 3.5 -3.03125 C 3.101562 -3.082031 2.707031 -3.144531 2.3125 -3.21875 C 1.925781 -3.300781 1.570312 -3.414062 1.25 -3.5625 C 0.9375 -3.71875 0.679688 -3.921875 0.484375 -4.171875 C 0.285156 -4.429688 0.1875 -4.769531 0.1875 -5.1875 C 0.1875 -5.539062 0.273438 -5.84375 0.453125 -6.09375 C 0.640625 -6.351562 0.882812 -6.566406 1.1875 -6.734375 C 1.488281 -6.910156 1.835938 -7.039062 2.234375 -7.125 C 2.640625 -7.207031 3.0625 -7.25 3.5 -7.25 C 4.125 -7.25 4.679688 -7.175781 5.171875 -7.03125 C 5.660156 -6.882812 6.101562 -6.675781 6.5 -6.40625 L 6.09375 -5.59375 C 5.6875 -5.882812 5.273438 -6.085938 4.859375 -6.203125 C 4.441406 -6.316406 3.988281 -6.375 3.5 -6.375 C 3.28125 -6.375 3.035156 -6.351562 2.765625 -6.3125 C 2.503906 -6.269531 2.257812 -6.203125 2.03125 -6.109375 C 1.800781 -6.015625 1.609375 -5.894531 1.453125 -5.75 C 1.304688 -5.601562 1.234375 -5.414062 1.234375 -5.1875 C 1.234375 -4.988281 1.296875 -4.828125 1.421875 -4.703125 C 1.554688 -4.585938 1.726562 -4.488281 1.9375 -4.40625 C 2.15625 -4.332031 2.40625 -4.269531 2.6875 -4.21875 C 2.96875 -4.175781 3.265625 -4.132812 3.578125 -4.09375 C 3.960938 -4.039062 4.347656 -3.972656 4.734375 -3.890625 C 5.128906 -3.816406 5.488281 -3.707031 5.8125 -3.5625 C 6.132812 -3.414062 6.394531 -3.210938 6.59375 -2.953125 C 6.789062 -2.703125 6.890625 -2.367188 6.890625 -1.953125 Z M 6.890625 -1.953125" transform="translate(277.763 229.851)"/></g></g></g><path transform="matrix(2.2314 0 0 2.25 289.81 226.101)" fill="none" d="M -0.000435833 0.0000453988 L 10.086399 0.0000453988" stroke="#FFF"/></svg>